<svg id="Capa_1" enable-background="new 0 0 512 512" height="512" viewBox="0 0 512 512" width="512" xmlns="http://www.w3.org/2000/svg"><g><g><path d="m195.734 404.637h120.533v99.876h-120.533z" fill="#e7ecf6"/></g><g><path d="m288.73 404.637v41.997c0 14.045-11.386 25.431-25.431 25.431h-67.565v32.448h120.533v-99.876z" fill="#d8e2f1"/></g><g><path d="m354.78 430.844h-197.559c-27.417 0-49.643-22.226-49.643-49.643v-278.474c0-27.417 22.226-49.643 49.643-49.643h197.559c27.417 0 49.643 22.226 49.643 49.643v278.474c0 27.417-22.226 49.643-49.643 49.643z" fill="#95d6a4"/></g><g><path d="m354.859 53.084h-9.283v269.351c0 27.373-22.19 49.563-49.563 49.563h-188.435v9.283c0 27.373 22.19 49.563 49.563 49.563h197.718c27.373 0 49.563-22.19 49.563-49.563v-278.634c.001-27.373-22.19-49.563-49.563-49.563z" fill="#78c2a4"/></g><g fill="#e7ecf6"><path d="m362.717 264.8 41.706-37.132v-20.052l-51.664 45.999c-4.679 4.166-10.055 7.313-15.979 9.355l-101.319 34.923c-7.015-12.288-20.236-20.595-35.369-20.595-22.445 0-40.706 18.261-40.706 40.706 0 2.024.154 4.012.44 5.958l-52.248 18.009v15.841l57.145-19.697c7.015 12.288 20.236 20.595 35.369 20.595.687 0 1.369-.018 2.048-.052l18.933 72.186h15.482l-19.853-75.691c6.966-3.127 12.905-8.147 17.14-14.414h170.581v-14.976h-164.376c.487-2.513.751-5.105.751-7.759 0-2.024-.154-4.013-.44-5.959l101.302-34.917c7.807-2.69 14.891-6.838 21.057-12.328zm-155.989 78.062c-.315.041-.63.095-.944.177-.196.052-.385.116-.574.182-1.655.335-3.366.513-5.118.513-14.188 0-25.73-11.542-25.73-25.73s11.542-25.731 25.73-25.731 25.731 11.542 25.731 25.731c-.001 11.894-8.114 21.924-19.095 24.858z"/><path d="m259.487 153.548-43.812 33.016-40.089-35.103c1.017-2.508 1.582-5.246 1.582-8.114v-76.096c0-4.135-3.353-7.488-7.488-7.488s-7.488 3.353-7.488 7.488v76.097c0 3.692-3.003 6.696-6.696 6.696h-47.876c-.014 0-.028.002-.042.002v14.972c.014 0 .028.002.042.002h47.876c3.615 0 7.023-.895 10.023-2.466l37.938 33.219-95.879 72.253v18.752l160.922-121.269c3.302-2.489 3.962-7.184 1.473-10.487-2.487-3.303-7.184-3.962-10.486-1.474z"/></g><g><path d="m343.188 512h-174.935c-4.135 0-7.488-3.353-7.488-7.488s3.353-7.488 7.488-7.488h174.935c4.136 0 7.488 3.353 7.488 7.488s-3.352 7.488-7.488 7.488z" fill="#365e7d"/></g><g><g><path d="m354.86 448.316h-197.719c-36.963 0-67.036-30.072-67.036-67.035v-278.634c0-36.963 30.072-67.036 67.036-67.036h197.719c36.963 0 67.035 30.072 67.035 67.036v278.634c-.001 36.964-30.072 67.035-67.035 67.035zm-197.719-377.761c-17.696 0-32.092 14.396-32.092 32.092v278.634c0 17.695 14.396 32.091 32.092 32.091h197.719c17.695 0 32.091-14.396 32.091-32.091v-278.634c0-17.696-14.396-32.092-32.091-32.092z" fill="#365e7d"/></g></g><g><g><path d="m393.883 48.193c7.835 10.971 12.46 24.392 12.46 38.902v290.63c0 30.398-24.642 55.04-55.04 55.04h-209.714c-14.51 0-27.931-4.625-38.903-12.46 12.178 16.945 32.042 28.012 54.455 28.012h197.719c36.963 0 67.035-30.072 67.035-67.035v-278.635c-.001-22.412-11.068-42.276-28.012-54.454z" fill="#2b4d66"/></g></g><g><g><path d="m380.34 79.742c-.612 62.852-59.185 130.736-74.902 147.833-2.071 2.253-5.619 2.252-7.69-.001-15.801-17.187-74.906-85.696-74.906-148.822 0-43.493 35.257-78.751 78.75-78.752 43.409-.001 79.17 36.335 78.748 79.742z" fill="#dd636e"/></g><path d="m317.244 1.607c17.798 14.731 29.178 37.044 28.938 61.635-.546 56.079-47.233 116.162-68.453 140.604 8.464 10.857 15.791 19.13 20.018 23.728 2.071 2.253 5.619 2.253 7.69.001 15.718-17.096 74.29-84.981 74.902-147.833.371-38.055-27.071-70.67-63.095-78.135z" fill="#da4a54"/><g><circle cx="300.772" cy="76.338" fill="#f6e266" r="33.337"/></g><g><path d="m315.274 46.313c2.122 4.385 3.312 9.304 3.312 14.502 0 18.411-14.925 33.337-33.337 33.337-5.198 0-10.117-1.191-14.502-3.312 5.394 11.147 16.811 18.835 30.025 18.835 18.411 0 33.337-14.925 33.337-33.337 0-13.214-7.688-24.631-18.835-30.025z" fill="#f1d333"/></g></g></g></svg>